<svg width="14" height="16" viewBox="0 0 14 16" fill="none" xmlns="http://www.w3.org/2000/svg">
<g clip-path="url(#clip0_7052_55)">
<path d="M13.8098 10.83C13.5998 11.29 13.2098 11.65 12.9298 12.08C12.6498 12.5 12.4698 12.98 12.1398 13.38C11.6198 14.02 10.7198 14.35 9.87982 14.22C10.0698 14.73 9.65982 15.32 9.11982 15.46C8.57982 15.6 7.98982 15.39 7.56982 15.03C7.14982 14.67 6.85982 14.2 6.57982 13.73C5.92982 14.47 4.83982 14.79 3.85982 14.59C3.60982 14.54 3.37982 14.45 3.14982 14.35C2.88982 14.24 2.74982 14.05 2.54982 13.84C2.08982 13.34 1.62982 12.84 1.15982 12.35C0.90982 12.08 0.64982 11.8 0.50982 11.47C0.35982 11.12 0.33982 10.74 0.32982 10.37C0.29982 9.69 0.27982 8.95 0.67982 8.38C0.72982 8.31 0.78982 8.24 0.77982 8.15C0.77982 8.04 0.65982 7.96 0.57982 7.89C0.12982 7.5 0.0598199 6.86 0.0198199 6.28C-0.0101801 5.79 -0.0401801 5.28 0.12982 4.82C0.36982 4.14 0.97982 3.66 1.45982 3.12C2.02982 2.46 2.46982 1.65 3.25982 1.25C4.28982 0.720002 5.64982 1.12 6.44982 1.94C6.83982 1.48 7.29982 1.05 7.84982 0.780002C8.40982 0.500002 9.07982 0.410002 9.65982 0.610002C10.4698 0.890002 10.9698 1.67 11.6698 2.15C12.0998 2.45 12.6298 2.65 12.9398 3.07C13.2098 3.43 13.2498 3.9 13.2898 4.34C13.3498 5.09 13.4098 5.87 13.0798 6.55C13.0298 6.65 12.9698 6.77 12.9898 6.88C13.0198 7.02 13.1498 7.1 13.2598 7.19C13.5998 7.47 13.7698 7.87 13.8598 8.3C13.9098 8.55 13.9398 8.82 13.9598 9.07C14.0098 9.67 14.0598 10.29 13.8098 10.84V10.83Z" fill="#3C403C"/>
<path d="M13.0098 9.4C12.8298 10.01 12.3498 10.49 12.0198 11.04C11.7498 11.5 11.5698 12.03 11.1298 12.35C10.6398 12.7 9.93982 12.69 9.39982 12.42C8.85982 12.15 8.45982 11.67 8.17982 11.15C7.89982 10.63 7.70982 10.07 7.47982 9.53C7.20982 10.92 7.67982 12.42 8.71982 13.43C8.78982 13.5 8.86982 13.57 8.89982 13.66C8.92982 13.75 8.89982 13.87 8.79982 13.91C8.73982 13.93 8.67982 13.91 8.61982 13.9C7.79982 13.65 7.24982 12.89 7.01982 12.09C6.78982 11.3 6.81982 10.46 6.80982 9.63C6.80982 9.48 6.72982 9.28 6.58982 9.31C6.50982 9.33 6.46982 9.41 6.43982 9.49C6.25982 9.99 6.25982 10.54 6.20982 11.07C6.15982 11.6 6.03982 12.16 5.65982 12.55C5.15982 13.07 4.34982 13.14 3.66982 12.97C3.22982 12.86 3.04982 12.58 2.74982 12.25C2.42982 11.89 2.10982 11.54 1.78982 11.18C1.56982 10.94 1.34982 10.69 1.21982 10.4C0.84982 9.62 1.21982 8.62 1.97982 8.17C2.78982 7.69 3.81982 7.82 4.75982 7.64C4.91982 7.61 5.10982 7.52 5.10982 7.37C4.54982 7.21 3.94982 7.22 3.35982 7.22C2.76982 7.22 2.15982 7.18 1.62982 6.93C1.09982 6.68 0.67982 6.15 0.72982 5.59C0.78982 5.03 1.26982 4.61 1.63982 4.18C2.09982 3.66 2.42982 3.04 2.92982 2.56C3.41982 2.07 4.14982 1.71 4.83982 1.9C5.55982 2.1 5.97982 2.83 6.15982 3.53C6.33982 4.23 6.35982 4.98 6.68982 5.63C6.95982 4.81 6.66982 3.89 6.88982 3.05C7.03982 2.45 7.45982 1.92 8.00982 1.61C8.47982 1.34 9.09982 1.25 9.58982 1.48C10.0898 1.72 10.3598 2.23 10.7798 2.58C11.2098 2.94 11.7898 3.13 12.1498 3.55C12.5598 4.03 12.5898 4.75 12.3198 5.32C12.0498 5.89 11.5098 6.31 10.9198 6.57C10.3298 6.83 9.67982 6.95 9.02982 7.03C8.95982 7.04 8.87982 7.05 8.81982 7.1C8.76982 7.15 8.75982 7.25 8.81982 7.28C8.83982 7.28 8.85982 7.29 8.87982 7.29C9.56982 7.34 10.2498 7.21 10.9398 7.22C11.6298 7.23 12.3698 7.42 12.7798 7.95C13.0898 8.35 13.1598 8.89 13.0098 9.37V9.4Z" fill="#8EDB74"/>
<path d="M7.52982 10.37C7.52982 10.37 7.51982 10.28 7.50982 10.23C7.50982 10.19 7.50982 10.15 7.52982 10.13C7.55982 10.1 7.61982 10.11 7.64982 10.15C7.67982 10.18 7.68982 10.23 7.69982 10.28C7.82982 10.98 8.22982 11.62 8.77982 12.11C9.07982 12.38 9.42982 12.6 9.81982 12.71C10.2098 12.82 10.6498 12.81 11.0098 12.61C11.5998 12.3 11.8298 11.61 12.1598 11.05C12.4198 10.62 12.7598 10.24 13.0998 9.86C13.0998 9.85 13.1198 9.84 13.1298 9.84C13.1598 9.84 13.1898 9.88 13.1898 9.91C13.2398 10.26 13.0898 10.61 12.8898 10.91C12.6898 11.21 12.4398 11.47 12.2398 11.77C11.9098 12.28 11.7398 12.9 11.2598 13.27C10.4698 13.89 9.34982 13.53 8.73982 12.87C8.09982 12.17 7.66982 11.3 7.53982 10.38L7.52982 10.37Z" fill="#00A06A"/>
<path d="M4.28982 14.03C3.96982 14.03 3.64982 13.95 3.36982 13.8C2.81982 13.5 2.57982 12.92 2.17982 12.48C1.92982 12.22 1.61982 12.01 1.37982 11.74C1.13982 11.47 0.97982 11.08 1.12982 10.76C1.63982 11.06 1.98982 11.55 2.34982 12.01C2.70982 12.47 3.11982 12.93 3.67982 13.13C4.48982 13.43 5.47982 13.07 5.97982 12.39C6.04982 12.3 6.11982 12.19 6.22982 12.17C6.24982 12.82 5.85982 13.47 5.26982 13.8C4.96982 13.97 4.62982 14.05 4.27982 14.04L4.28982 14.03Z" fill="#00A06A"/>
<path d="M0.67982 6.65C0.67982 6.65 0.67982 6.61 0.67982 6.59C0.67982 6.55 0.67982 6.51 0.70982 6.49C0.76982 6.45 0.83982 6.5 0.88982 6.55C1.31982 6.98 1.92982 7.21 2.54982 7.3C3.15982 7.39 3.78982 7.37 4.40982 7.39C4.46982 7.39 4.55982 7.41 4.56982 7.47C4.56982 7.53 4.48982 7.57 4.42982 7.58C3.78982 7.69 3.12982 7.65 2.50982 7.82C2.34982 7.87 2.18982 7.93 2.01982 7.95C1.33982 8.03 0.72982 7.26 0.67982 6.66V6.65Z" fill="#00A06A"/>
<path d="M9.03982 14.68C9.02982 14.83 8.98982 14.9 8.81982 14.87C8.27982 14.79 7.85982 14.53 7.53982 14.1C7.21982 13.67 6.98982 13.2 6.87982 12.67C6.85982 12.59 6.82982 12.49 6.92982 12.46C7.02982 12.43 7.03982 12.54 7.06982 12.6C7.24982 12.95 7.46982 13.28 7.75982 13.57C7.88982 13.7 8.03982 13.81 8.21982 13.88C8.49982 13.99 8.69982 14.21 8.91982 14.4C9.00982 14.48 9.01982 14.59 9.03982 14.68Z" fill="#00A06A"/>
<path d="M11.1898 7.16C11.0598 7.17 10.9298 7.17 10.7998 7.17C10.5398 7.17 10.2798 7.19 10.0198 7.17C9.75982 7.16 9.77982 7.02 10.0198 6.99C10.9598 6.85 11.8298 6.31 12.3598 5.55C12.3998 5.49 12.4598 5.43 12.5198 5.46C12.5798 5.48 12.5798 5.56 12.5698 5.61C12.5298 5.91 12.4498 6.2 12.2998 6.46C12.1498 6.72 11.9198 6.95 11.6298 7.06C11.4898 7.11 11.3398 7.14 11.1898 7.15V7.16Z" fill="#00A06A"/>
<path d="M6.68982 9.91C6.68982 10 6.68982 10.1 6.68982 10.19C6.67982 10.3 6.57982 10.33 6.48982 10.33C6.36982 10.33 6.39982 10.23 6.39982 10.17C6.41982 9.98 6.44982 9.79 6.47982 9.6C6.47982 9.55 6.50982 9.5 6.56982 9.51C6.62982 9.51 6.66982 9.56 6.67982 9.61C6.67982 9.71 6.67982 9.81 6.67982 9.91H6.68982Z" fill="#00A06A"/>
</g>
<defs>
<clipPath id="clip0_7052_55">
<rect width="14" height="15" fill="white" transform="translate(0 0.5)"/>
</clipPath>
</defs>
</svg>
