<svg width="190" height="190" viewBox="0 0 190 190" fill="none" xmlns="http://www.w3.org/2000/svg">
<circle cx="95" cy="95" r="95" fill="#DAE6D6"/>
<g clip-path="url(#clip0_646_678)">
<mask id="mask0_646_678" style="mask-type:luminance" maskUnits="userSpaceOnUse" x="54" y="55" width="80" height="80">
<path d="M134 55H54V135H134V55Z" fill="white"/>
</mask>
<g mask="url(#mask0_646_678)">
<path d="M94.0003 128.333C75.5903 128.333 60.667 113.41 60.667 95C60.667 76.59 75.5903 61.6667 94.0003 61.6667C112.41 61.6667 127.334 76.59 127.334 95C127.334 113.41 112.41 128.333 94.0003 128.333ZM94.0003 121.667C101.073 121.667 107.856 118.857 112.857 113.856C117.857 108.855 120.667 102.072 120.667 95C120.667 87.9276 117.857 81.1448 112.857 76.1439C107.856 71.1429 101.073 68.3334 94.0003 68.3334C86.9279 68.3334 80.1451 71.1429 75.1442 76.1439C70.1432 81.1448 67.3337 87.9276 67.3337 95C67.3337 102.072 70.1432 108.855 75.1442 113.856C80.1451 118.857 86.9279 121.667 94.0003 121.667ZM82.3337 101.667H100.667C101.109 101.667 101.533 101.491 101.846 101.179C102.158 100.866 102.334 100.442 102.334 100C102.334 99.558 102.158 99.134 101.846 98.8214C101.533 98.509 101.109 98.3334 100.667 98.3334H87.3337C85.1235 98.3334 83.0039 97.4554 81.4411 95.8927C79.8783 94.3297 79.0003 92.21 79.0003 90C79.0003 87.7899 79.8783 85.6703 81.4411 84.1075C83.0039 82.5447 85.1235 81.6667 87.3337 81.6667H90.667V75H97.3337V81.6667H105.667V88.3334H87.3337C86.8916 88.3334 86.4677 88.509 86.1552 88.8214C85.8426 89.134 85.667 89.558 85.667 90C85.667 90.442 85.8426 90.866 86.1552 91.1787C86.4677 91.491 86.8916 91.6667 87.3337 91.6667H100.667C102.877 91.6667 104.997 92.5447 106.56 94.1074C108.122 95.6704 109 97.79 109 100C109 102.21 108.122 104.33 106.56 105.893C104.997 107.455 102.877 108.333 100.667 108.333H97.3337V115H90.667V108.333H82.3337V101.667Z" fill="black"/>
</g>
</g>
<defs>
<clipPath id="clip0_646_678">
<rect width="80" height="80" fill="white" transform="translate(54 55)"/>
</clipPath>
</defs>
</svg>
