<svg width="190" height="190" viewBox="0 0 190 190" fill="none" xmlns="http://www.w3.org/2000/svg">
<circle cx="95" cy="95" r="95" fill="#DAE6D6"/>
<g clip-path="url(#clip0_646_679)">
<mask id="mask0_646_679" style="mask-type:luminance" maskUnits="userSpaceOnUse" x="55" y="55" width="80" height="80">
<path d="M135 55H55V135H135V55Z" fill="white"/>
</mask>
<g mask="url(#mask0_646_679)">
<path d="M106.38 71.6693H125.027C126.854 71.6693 128.334 73.1526 128.334 75.0026V121.669C128.334 123.509 126.817 125.003 125.027 125.003H64.9737C64.5375 125.002 64.1057 124.915 63.7032 124.747C63.3007 124.578 62.9353 124.332 62.6281 124.023C62.3208 123.713 62.0778 123.346 61.9129 122.942C61.748 122.538 61.6644 122.106 61.6671 121.669V75.0026C61.6671 73.1626 63.1837 71.6693 64.9737 71.6693H83.6204L75.1671 63.216L79.8804 58.5026L93.047 71.6693H96.9537L110.12 58.5026L114.834 63.216L106.38 71.6693ZM68.3337 78.336V118.336H121.667V78.336H68.3337Z" fill="black"/>
</g>
</g>
<defs>
<clipPath id="clip0_646_679">
<rect width="80" height="80" fill="white" transform="translate(55 55)"/>
</clipPath>
</defs>
</svg>
