<svg width="190" height="190" viewBox="0 0 190 190" fill="none" xmlns="http://www.w3.org/2000/svg">
<circle cx="95" cy="95" r="95" fill="#DAE6D6"/>
<g clip-path="url(#clip0_646_677)">
<mask id="mask0_646_677" style="mask-type:luminance" maskUnits="userSpaceOnUse" x="55" y="55" width="80" height="80">
<path d="M135 55H55V135H135V55Z" fill="white"/>
</mask>
<g mask="url(#mask0_646_677)">
<path d="M61.667 86.6667V68.3333C61.667 67.4493 62.0182 66.6014 62.6433 65.9763C63.2684 65.3512 64.1163 65 65.0003 65H125C125.884 65 126.732 65.3512 127.357 65.9763C127.982 66.6014 128.334 67.4493 128.334 68.3333V86.6667C126.124 86.6667 124.004 87.5446 122.441 89.1073C120.878 90.6703 120 92.79 120 95C120 97.21 120.878 99.3297 122.441 100.893C124.004 102.455 126.124 103.333 128.334 103.333V121.667C128.334 122.551 127.982 123.399 127.357 124.024C126.732 124.649 125.884 125 125 125H65.0003C64.1163 125 63.2684 124.649 62.6433 124.024C62.0182 123.399 61.667 122.551 61.667 121.667V103.333C63.8771 103.333 65.9968 102.455 67.5596 100.893C69.1224 99.3297 70.0003 97.21 70.0003 95C70.0003 92.79 69.1224 90.6703 67.5596 89.1073C65.9968 87.5446 63.8771 86.6667 61.667 86.6667ZM101.667 71.6667H68.3337V81.56C70.8377 82.801 72.9452 84.7168 74.4187 87.0915C75.8921 89.4663 76.6729 92.2053 76.6729 95C76.6729 97.7947 75.8921 100.534 74.4187 102.908C72.9452 105.283 70.8377 107.199 68.3337 108.44V118.333H101.667V71.6667ZM108.334 71.6667V118.333H121.667V108.44C119.163 107.199 117.055 105.283 115.582 102.908C114.109 100.534 113.328 97.7947 113.328 95C113.328 92.2053 114.109 89.4663 115.582 87.0915C117.055 84.7168 119.163 82.801 121.667 81.56V71.6667H108.334Z" fill="black"/>
</g>
</g>
<defs>
<clipPath id="clip0_646_677">
<rect width="80" height="80" fill="white" transform="translate(55 55)"/>
</clipPath>
</defs>
</svg>
