<svg clip-rule="evenodd" fill-rule="evenodd" stroke-linejoin="round" stroke-miterlimit="2" viewBox="0 0 64 64" xmlns="http://www.w3.org/2000/svg"><g transform="translate(-2008 -248)"><g transform="matrix(.921 0 0 .921 1708.39 20.098)"><path d="m330.866 283.937 29.134 29.134 29.134-29.134c3.589-3.59 5.606-8.458 5.606-13.535s-2.017-9.945-5.606-13.535c-.001 0-.001 0-.001-.001-3.59-3.589-8.458-5.606-13.535-5.606s-9.945 2.017-13.535 5.606c0 0-2.063 2.063-2.063 2.063s-2.063-2.063-2.063-2.063c-3.59-3.589-8.458-5.606-13.535-5.606s-9.945 2.017-13.535 5.606c0 .001 0 .001-.001.001-3.589 3.59-5.606 8.458-5.606 13.535s2.017 9.945 5.606 13.535zm29.134 22.992-26.063-26.063c-2.775-2.775-4.335-6.539-4.335-10.464s1.56-7.689 4.335-10.464c0-.001 0-.001.001-.001 2.775-2.775 6.539-4.335 10.464-4.335s7.689 1.56 10.464 4.335c0 0 5.134 5.134 5.134 5.134l5.134-5.134c2.775-2.775 6.539-4.335 10.464-4.335s7.689 1.56 10.464 4.335c.001 0 .001 0 .001.001 2.775 2.775 4.335 6.539 4.335 10.464s-1.56 7.689-4.335 10.464z"/></g></g></svg>